<svg xmlns="http://www.w3.org/2000/svg" viewBox="0 0 32 32" fill="none">
  <rect width="32" height="32" rx="8" fill="#22c55e"/>
  <path d="M16 7C11 7 7 11 7 16C7 21 11 25 16 25C21 25 25 21 25 16C25 11 21 7 16 7Z" fill="white" opacity="0.15"/>
  <path d="M16 8.5C16 8.5 20 12 20 16.5C20 19 18.2 21 16 21C13.8 21 12 19 12 16.5C12 12 16 8.5 16 8.5Z" fill="white"/>
  <path d="M13 19C13.5 21.5 14.6 23 16 23.5C17.4 23 18.5 21.5 19 19" stroke="white" stroke-width="1.2" stroke-linecap="round" opacity="0.7"/>
</svg>